<svg xmlns="http://www.w3.org/2000/svg" width="62.0pt" height="76.5pt" viewBox="0 0 124 153"><path d="M 24.4 19.2 Q 24.4 23.9 24.4 25.9 Q 24.4 27.9 24.4 30.3 Q 24.4 32.6 24.4 34.9 Q 24.4 37.3 24.4 39.9 Q 24.4 42.5 24.4 44.6 Q 24.4 46.6 24.2 48.9 Q 23.9 51.3 23.9 53.3 Q 23.9 55.4 23.6 57.1 Q 23.3 58.9 23.3 61.2 Q 23.3 63.5 23.0 65.9 Q 22.7 68.2 22.4 70.5 Q 22.1 72.9 22.1 74.9 Q 22.1 77.0 21.8 79.0 Q 21.5 81.0 21.5 82.8 Q 21.5 84.5 21.5 86.3 Q 21.5 88.0 21.5 90.4 Q 21.5 92.7 21.2 95.0 Q 20.9 97.4 20.9 99.7 Q 20.9 102.0 20.9 104.4 Q 20.9 106.7 20.9 109.3 Q 20.9 112.0 20.9 114.6 Q 20.9 117.2 20.7 119.2 Q 20.4 121.3 20.4 123.3 Q 20.4 125.4 20.4 127.1 Q 20.4 128.9 20.4 130.0 Q 20.4 131.2 20.1 131.8 Q 19.8 132.4 19.8 132.7 Q 19.8 132.9 19.8 133.2 Q 19.8 133.5 19.8 133.5 L 19.8 133.5" fill="none" stroke="#16233d" stroke-width="2.4" stroke-linecap="round" stroke-linejoin="round"/><path d="M 19.2 66.5 Q 19.8 67.6 20.1 67.9 Q 20.4 68.2 20.4 68.5 Q 20.4 68.8 20.7 69.1 Q 20.9 69.4 20.9 69.7 Q 20.9 70.0 20.9 70.0 Q 20.9 70.0 20.9 70.0 Q 20.9 70.0 21.2 70.2 Q 21.5 70.5 21.8 70.8 Q 22.1 71.1 23.0 71.4 Q 23.9 71.7 25.3 71.7 Q 26.8 71.7 28.8 71.7 Q 30.9 71.7 33.5 71.7 Q 36.1 71.7 38.7 72.0 Q 41.4 72.3 44.3 72.3 Q 47.2 72.3 50.1 72.3 Q 53.0 72.3 55.4 72.3 Q 57.7 72.3 60.6 72.3 Q 63.5 72.3 65.9 72.3 Q 68.2 72.3 70.5 72.3 Q 72.9 72.3 74.9 72.0 Q 77.0 71.7 78.4 71.7 Q 79.9 71.7 81.3 71.7 Q 82.8 71.7 84.0 71.7 Q 85.1 71.7 86.3 71.7 Q 87.5 71.7 88.6 71.4 Q 89.8 71.1 91.0 71.1 Q 92.1 71.1 93.6 70.8 Q 95.0 70.5 96.2 70.2 Q 97.4 70.0 98.2 70.0 Q 99.1 70.0 100.0 69.7 Q 100.9 69.4 101.5 69.1 Q 102.0 68.8 102.6 68.8 Q 103.2 68.8 103.5 68.5 Q 103.8 68.2 103.8 68.2 Q 103.8 68.2 103.8 68.2 Q 103.8 68.2 104.1 67.9 L 104.4 67.6" fill="none" stroke="#16233d" stroke-width="2.4" stroke-linecap="round" stroke-linejoin="round"/><path d="M 79.9 27.4 Q 79.9 29.1 80.2 30.3 Q 80.5 31.4 80.7 33.2 Q 81.0 35.0 81.6 37.0 Q 82.2 39.0 83.1 41.7 Q 84.0 44.3 84.5 47.5 Q 85.1 50.7 85.7 53.9 Q 86.3 57.1 86.9 60.3 Q 87.5 63.5 87.7 66.4 Q 88.0 69.4 88.6 72.6 Q 89.2 75.8 89.8 78.7 Q 90.4 81.6 90.7 84.5 Q 91.0 87.5 91.5 90.1 Q 92.1 92.7 92.4 95.0 Q 92.7 97.4 93.3 99.7 Q 93.9 102.0 94.5 104.7 Q 95.0 107.3 95.6 109.3 Q 96.2 111.4 96.8 113.4 Q 97.4 115.5 97.7 116.9 Q 98.0 118.4 98.0 119.5 Q 98.0 120.7 98.2 121.0 Q 98.5 121.3 98.5 121.6 Q 98.5 121.9 98.5 122.2 Q 98.5 122.5 98.5 122.5 Q 98.5 122.5 98.5 122.5 Q 98.5 122.5 98.5 122.5 L 98.5 122.5" fill="none" stroke="#16233d" stroke-width="2.4" stroke-linecap="round" stroke-linejoin="round"/><!--scen:{"v":1,"strokes":[{"color":"#16233d","width":2.4,"points":[{"x":574,"y":267.3333435058594},{"x":574,"y":272},{"x":574,"y":276.0833435058594},{"x":574,"y":280.75},{"x":574,"y":285.4166564941406},{"x":574,"y":290.6666564941406},{"x":574,"y":294.75},{"x":573.4166870117188,"y":299.4166564941406},{"x":573.4166870117188,"y":303.5},{"x":572.8333129882812,"y":307},{"x":572.8333129882812,"y":311.6666564941406},{"x":572.25,"y":316.3333435058594},{"x":571.6666870117188,"y":321},{"x":571.6666870117188,"y":325.0833435058594},{"x":571.0833129882812,"y":329.1666564941406},{"x":571.0833129882812,"y":332.6666564941406},{"x":571.0833129882812,"y":336.1666564941406},{"x":571.0833129882812,"y":340.8333435058594},{"x":570.5,"y":345.5},{"x":570.5,"y":350.1666564941406},{"x":570.5,"y":354.8333435058594},{"x":570.5,"y":360.0833435058594},{"x":570.5,"y":365.3333435058594},{"x":569.9166870117188,"y":369.4166564941406},{"x":569.9166870117188,"y":373.5},{"x":569.9166870117188,"y":377},{"x":569.9166870117188,"y":379.3333435058594},{"x":569.3333129882812,"y":380.5},{"x":569.3333129882812,"y":381.0833435058594},{"x":569.3333129882812,"y":381.6666564941406},{"x":569.3333129882812,"y":381.6666564941406}]},{"color":"#16233d","width":2.4,"points":[{"x":568.75,"y":314.5833435058594},{"x":569.3333129882812,"y":315.75},{"x":569.9166870117188,"y":316.3333435058594},{"x":569.9166870117188,"y":316.9166564941406},{"x":570.5,"y":317.5},{"x":570.5,"y":318.0833435058594},{"x":570.5,"y":318.0833435058594},{"x":570.5,"y":318.0833435058594},{"x":571.0833129882812,"y":318.6666564941406},{"x":571.6666870117188,"y":319.25},{"x":573.4166870117188,"y":319.8333435058594},{"x":576.3333129882812,"y":319.8333435058594},{"x":580.4166870117188,"y":319.8333435058594},{"x":585.6666870117188,"y":319.8333435058594},{"x":590.9166870117188,"y":320.4166564941406},{"x":596.75,"y":320.4166564941406},{"x":602.5833129882812,"y":320.4166564941406},{"x":607.25,"y":320.4166564941406},{"x":613.0833129882812,"y":320.4166564941406},{"x":617.75,"y":320.4166564941406},{"x":622.4166870117188,"y":320.4166564941406},{"x":626.5,"y":319.8333435058594},{"x":629.4166870117188,"y":319.8333435058594},{"x":632.3333129882812,"y":319.8333435058594},{"x":634.6666870117188,"y":319.8333435058594},{"x":637,"y":319.8333435058594},{"x":639.3333129882812,"y":319.25},{"x":641.6666870117188,"y":319.25},{"x":644.5833129882812,"y":318.6666564941406},{"x":646.9166870117188,"y":318.0833435058594},{"x":648.6666870117188,"y":318.0833435058594},{"x":650.4166870117188,"y":317.5},{"x":651.5833129882812,"y":316.9166564941406},{"x":652.75,"y":316.9166564941406},{"x":653.3333129882812,"y":316.3333435058594},{"x":653.3333129882812,"y":316.3333435058594},{"x":653.3333129882812,"y":316.3333435058594},{"x":653.9166870117188,"y":315.75}]},{"color":"#16233d","width":2.4,"points":[{"x":629.4166870117188,"y":275.5},{"x":629.4166870117188,"y":277.25},{"x":630,"y":279.5833435058594},{"x":630.5833129882812,"y":283.0833435058594},{"x":631.75,"y":287.1666564941406},{"x":633.5,"y":292.4166564941406},{"x":634.6666870117188,"y":298.8333435058594},{"x":635.8333129882812,"y":305.25},{"x":637,"y":311.6666564941406},{"x":637.5833129882812,"y":317.5},{"x":638.75,"y":323.9166564941406},{"x":639.9166870117188,"y":329.75},{"x":640.5,"y":335.5833435058594},{"x":641.6666870117188,"y":340.8333435058594},{"x":642.25,"y":345.5},{"x":643.4166870117188,"y":350.1666564941406},{"x":644.5833129882812,"y":355.4166564941406},{"x":645.75,"y":359.5},{"x":646.9166870117188,"y":363.5833435058594},{"x":647.5,"y":366.5},{"x":647.5,"y":368.8333435058594},{"x":648.0833129882812,"y":369.4166564941406},{"x":648.0833129882812,"y":370},{"x":648.0833129882812,"y":370.5833435058594},{"x":648.0833129882812,"y":370.5833435058594},{"x":648.0833129882812,"y":370.5833435058594},{"x":648.0833129882812,"y":370.5833435058594}]}]}--></svg>